<?xml version="1.0" encoding="UTF-8" standalone="no"?>
<svg width="20px" height="20px" viewBox="0 0 20 20" version="1.1" xmlns="http://www.w3.org/2000/svg" xmlns:xlink="http://www.w3.org/1999/xlink">
    <defs></defs>
    <g id="Page-1" stroke="none" stroke-width="1" fill="none" fill-rule="evenodd">
        <g id="Main-Window" transform="translate(-26.000000, -276.000000)" fill="#000000">
            <g id="Messages" transform="translate(21.000000, 241.000000)">
                <g id="message">
                    <g id="ava" transform="translate(0.000000, 28.000000)">
                        <g id="airplane" transform="translate(5.000000, 7.000000)">
                            <g id="Page-1">
                                <g id="Icon-Set-Filled">
                                    <path d="M19.5048094,0.516450996 C18.7260697,-0.264788634 17.3573379,-0.0816660645 16.5742233,0.703323515 L12.5886512,4.67952073 L5.19624931,1.9170574 C4.48813371,1.73393483 3.77501818,1.49706298 2.89690483,2.37767629 C2.44878578,2.82642033 1.51754814,3.76015794 2.89690483,5.14201459 L7.96558755,9.2919595 L4.66750633,12.5831658 L1.59004718,11.813801 C1.13380324,11.6963026 0.826307319,11.7881764 0.59193543,12.0469229 C0.473811998,12.194421 -0.383051627,12.8294125 0.214440442,13.4281546 L3.79251794,16.2118676 L6.57623099,19.7899451 C7.00872525,20.2236894 7.41059491,19.953068 7.95996262,19.4311999 C8.308083,19.0824545 8.233084,18.9030819 8.12808539,18.3949637 L7.43309462,15.3387542 L10.7086761,12.0519229 L14.8523711,17.1218556 C16.2311028,18.5037122 17.1629655,17.5693496 17.6110845,17.1218556 C18.4898228,16.2406173 18.253576,15.5268767 18.0704534,14.8175112 L15.3311148,7.41260945 L19.3004371,3.42953732 C20.0835517,2.64517274 20.284174,1.29706563 19.5048094,0.516450996" id="airplane"></path>
                                </g>
                            </g>
                        </g>
                    </g>
                </g>
            </g>
        </g>
    </g>
</svg>