<?xml version="1.0" encoding="UTF-8" standalone="no"?>
<svg width="18px" height="22px" viewBox="0 0 18 22" version="1.1" xmlns="http://www.w3.org/2000/svg" xmlns:xlink="http://www.w3.org/1999/xlink">
    <defs></defs>
    <g id="Page-1" stroke="none" stroke-width="1" fill="none" fill-rule="evenodd">
        <g id="Main-Window" transform="translate(-29.000000, -514.000000)" fill="#000000">
            <g id="Messages" transform="translate(21.000000, 241.000000)">
                <g id="message" transform="translate(1.000000, 244.000000)">
                    <g id="ava" transform="translate(0.000000, 25.000000)">
                        <g id="flame-fire" transform="translate(7.000000, 4.000000)">
                            <g id="Page-1">
                                <g id="Icon-Set-Filled">
                                    <path d="M15.8573077,4.7801875 C12.8215385,5.6395625 12.2656154,8.07675 12.4615385,9.625 C10.296,7.096375 10.3846154,4.1889375 10.3846154,0 C3.43938462,2.6008125 5.05453846,10.098 4.84615385,12.375 C3.09946154,10.9553125 2.76923077,7.5625 2.76923077,7.5625 C0.924923077,8.5050625 0,11.0213125 0,13.0625 C0,17.99875 4.02923077,22 9,22 C13.9707692,22 18,17.99875 18,13.0625 C18,10.1289375 15.831,8.7759375 15.8573077,4.7801875" id="flame-fire"></path>
                                </g>
                            </g>
                        </g>
                    </g>
                </g>
            </g>
        </g>
    </g>
</svg>