<?xml version="1.0" encoding="UTF-8" standalone="no"?>
<svg width="16px" height="19px" viewBox="0 0 16 19" version="1.1" xmlns="http://www.w3.org/2000/svg" xmlns:xlink="http://www.w3.org/1999/xlink">
    <defs></defs>
    <g id="Page-1" stroke="none" stroke-width="1" fill="none" fill-rule="evenodd" fill-opacity="0.699999988">
        <g id="Main-Window" transform="translate(-30.000000, -442.000000)" fill="#000000">
            <g id="Messages" transform="translate(21.000000, 241.000000)">
                <g id="message:user" transform="translate(1.000000, 169.000000)">
                    <g id="ava" transform="translate(0.000000, 26.000000)">
                        <g id="water" transform="translate(8.000000, 6.000000)">
                            <g id="Page-1">
                                <g id="Icon-Set-Filled">
                                    <path d="M7.71875,16.03125 C5.4233125,16.03125 3.5625,14.195375 3.5625,11.9308125 C3.5625,9.66565625 6.158375,7.49846875 7.71875,5.9375 C9.34146875,7.53884375 11.875,9.66565625 11.875,11.9308125 C11.875,14.195375 10.0141875,16.03125 7.71875,16.03125 L7.71875,16.03125 L7.71875,16.03125 Z M7.71875,0 C4.82125,2.93846875 0,7.018125 0,11.28125 C0,15.544375 3.455625,19 7.71875,19 C11.981875,19 15.4375,15.544375 15.4375,11.28125 C15.4375,7.018125 10.7332187,3.01446875 7.71875,0 L7.71875,0 L7.71875,0 Z M7.69915625,7.42484375 C6.5870625,8.618875 4.757125,9.9761875 4.757125,11.7081562 C4.757125,13.440125 6.08296875,14.84375 7.71875,14.84375 C9.35453125,14.84375 10.680375,13.440125 10.680375,11.7081562 C10.680375,9.9761875 8.8551875,8.64915625 7.69915625,7.42484375 L7.69915625,7.42484375 L7.69915625,7.42484375 Z" id="water"></path>
                                </g>
                            </g>
                        </g>
                    </g>
                </g>
            </g>
        </g>
    </g>
</svg>